<?xml version="1.0" standalone="no"?>
<!DOCTYPE svg PUBLIC "-//W3C//DTD SVG 20010904//EN"
 "http://www.w3.org/TR/2001/REC-SVG-20010904/DTD/svg10.dtd">
<svg version="1.0" xmlns="http://www.w3.org/2000/svg"
 width="512.000000pt" height="512.000000pt" viewBox="0 0 512.000000 512.000000"
 preserveAspectRatio="xMidYMid meet">
<metadata>
Created by potrace 1.11, written by Peter Selinger 2001-2013
</metadata>
<g transform="translate(0.000000,512.000000) scale(0.100000,-0.100000)"
fill="#000000" stroke="none">
<path d="M1675 4534 c-113 -17 -245 -55 -330 -93 -55 -25 -68 -36 -81 -67 -21
-49 -11 -95 27 -133 48 -48 86 -50 208 -8 128 44 172 54 298 67 163 17 330 -7
500 -71 97 -37 134 -34 179 12 23 24 29 39 29 73 0 62 -26 93 -109 132 -196
90 -482 125 -721 88z"/>
<path d="M3375 3973 c-149 -19 -318 -68 -356 -104 -25 -23 -29 -35 -29 -77 0
-62 32 -106 91 -123 33 -10 50 -9 116 10 43 13 87 25 98 28 14 4 8 -8 -23 -41
-145 -157 -144 -425 1 -574 64 -66 109 -86 192 -87 60 0 78 4 125 31 219 123
241 510 37 664 -25 19 -45 35 -44 36 1 0 41 -3 89 -8 106 -10 237 -47 341 -95
111 -52 167 -47 207 20 33 53 21 104 -33 155 -57 53 -272 129 -447 157 -86 13
-287 18 -365 8z"/>
<path d="M1800 3901 c-118 -39 -207 -154 -231 -300 -47 -285 193 -533 409
-422 53 27 119 97 148 159 116 244 -17 553 -243 568 -32 2 -69 0 -83 -5z"/>
<path d="M1464 2562 c-47 -22 -74 -69 -74 -129 0 -21 11 -83 25 -137 29 -114
33 -240 10 -325 -30 -114 -60 -157 -223 -315 -84 -83 -176 -181 -203 -217
-133 -180 -174 -367 -133 -610 48 -284 187 -507 413 -661 159 -108 323 -159
516 -160 109 0 144 5 385 57 283 60 344 81 408 139 93 85 92 230 -2 265 -16 6
-11 11 28 31 86 41 138 151 117 244 -10 40 -61 101 -93 112 -26 8 -22 17 13
38 74 44 121 162 99 248 -12 42 -85 128 -120 140 -8 3 -13 7 -10 10 3 2 181
46 395 97 216 52 413 104 443 118 68 32 102 86 102 164 -1 126 -94 214 -210
195 -19 -3 -365 -82 -768 -176 -402 -93 -750 -170 -771 -170 -69 0 -64 23 29
144 143 187 93 619 -95 811 -89 90 -200 125 -281 87z"/>
<path d="M2315 2374 c-16 -2 -66 -9 -109 -15 -155 -21 -192 -52 -187 -158 1
-13 19 -41 41 -64 l41 -40 67 7 c37 4 92 11 122 16 85 13 225 11 326 -5 158
-25 276 -69 405 -149 96 -60 144 -63 195 -12 63 63 41 143 -57 208 -132 87
-316 160 -487 192 -83 16 -301 28 -357 20z"/>
</g>
</svg>
